<?xml version="1.0"?>
<svg xmlns="http://www.w3.org/2000/svg" id="Outline" viewBox="0 0 512 512" width="512" height="512">
  <g fill="rgb(112,193,112)" fill-rule="nonzero">
    <path d="M181.328,330.032a8,8,0,0,0-11.3.64l-51.175,57.316-16.889-18.916a8,8,0,0,0-11.936,10.657l22.858,25.6a8,8,0,0,0,11.935,0l57.143-64A8,8,0,0,0,181.328,330.032Z"/>
    <path d="M368,352a40.02,40.02,0,0,0,28-11.466,40,40,0,1,0,0-57.068A39.992,39.992,0,1,0,368,352Zm56-64a24,24,0,1,1-24,24A24.028,24.028,0,0,1,424,288Zm-56,0a24.034,24.034,0,0,1,18.861,9.173,39.851,39.851,0,0,0,0,29.654A24,24,0,1,1,368,288Z"/>
    <path d="M456,64H56a40.045,40.045,0,0,0-40,40V344a40.052,40.052,0,0,0,35.248,39.708A88.01,88.01,0,0,0,220.673,384H456a40.045,40.045,0,0,0,40-40V104A40.045,40.045,0,0,0,456,64ZM136,432a72,72,0,1,1,72-72A72.081,72.081,0,0,1,136,432Zm344-88a24.028,24.028,0,0,1-24,24H223.633c.238-2.636.367-5.3.367-8a88,88,0,0,0-176,0q0,3.385.254,6.71A24.037,24.037,0,0,1,32,344V208H480Zm0-152H32V144H480Zm0-64H32V104A24.028,24.028,0,0,1,56,80H456a24.028,24.028,0,0,1,24,24Z"/>
  </g>
</svg>
