<svg height="512" viewBox="0 0 60 60" width="512" xmlns="http://www.w3.org/2000/svg">
  <g id="Page-1" fill="none" fill-rule="evenodd">
    <g id="002---Transfers" fill="rgb(241,179,90)" fill-rule="nonzero">
      <path id="Shape" d="m5 28h28c2.7600532-.0033061 4.9966939-2.2399468 5-5v-18c-.0033061-2.76005315-2.2399468-4.99669388-5-5h-28c-2.76005315.00330612-4.99669388 2.23994685-5 5v18c.00330612 2.7600532 2.23994685 4.9966939 5 5zm28-2h-28c-1.65685425 0-3-1.3431458-3-3h34c0 1.6568542-1.3431458 3-3 3zm-28-24h28c1.6568542 0 3 1.34314575 3 3v10h-23c-.5522847 0-1 .4477153-1 1s.4477153 1 1 1h23v4h-34v-4h5c.55228475 0 1-.4477153 1-1s-.44771525-1-1-1h-5v-10c0-1.65685425 1.34314575-3 3-3z"/>
      <path id="Shape" d="m26 10c.740399-.00260366 1.4533329-.28064791 2-.78 1.1986086 1.0894491 3.0455949 1.0307294 4.172581-.1326554 1.1269861-1.16338482 1.1269861-3.01130438 0-4.1746892-1.1269861-1.16338483-2.9739724-1.22210453-4.172581-.1326554-.9933291-.9028176-2.4654891-1.03591478-3.6046342-.32589301-1.1391451.71002178-1.6680028 2.09034039-1.2949262 3.37975742.3730765 1.28941703 1.557279 2.17408329 2.8995604 2.16613559zm4-4c.5522847 0 1 .44771525 1 1s-.4477153 1-1 1-1-.44771525-1-1 .4477153-1 1-1zm-4 0c.5522847 0 1 .44771525 1 1s-.4477153 1-1 1-1-.44771525-1-1 .4477153-1 1-1z"/>
      <path id="Shape" d="m5 8h1c.55228475 0 1-.44771525 1-1s-.44771525-1-1-1h-1c-.55228475 0-1 .44771525-1 1s.44771525 1 1 1z"/>
      <path id="Shape" d="m10 8h3c.5522847 0 1-.44771525 1-1s-.4477153-1-1-1h-3c-.55228475 0-1 .44771525-1 1s.44771525 1 1 1z"/>
      <path id="Shape" d="m5 12h11c.5522847 0 1-.4477153 1-1s-.4477153-1-1-1h-11c-.55228475 0-1 .4477153-1 1s.44771525 1 1 1z"/>
      <path id="Shape" d="m55 32h-28c-2.7600532.0033061-4.9966939 2.2399468-5 5v18c.0033061 2.7600532 2.2399468 4.9966939 5 5h28c2.7600532-.0033061 4.9966939-2.2399468 5-5v-18c-.0033061-2.7600532-2.2399468-4.9966939-5-5zm-28 2h28c1.6568542 0 3 1.3431458 3 3v10h-23c-.5522847 0-1 .4477153-1 1s.4477153 1 1 1h23v4h-34v-4h5c.5522847 0 1-.4477153 1-1s-.4477153-1-1-1h-5v-10c0-1.6568542 1.3431458-3 3-3zm28 24h-28c-1.6568542 0-3-1.3431458-3-3h34c0 1.6568542-1.3431458 3-3 3z"/>
      <path id="Shape" d="m48 42c.740399-.0026037 1.4533329-.2806479 2-.78 1.1986086 1.0894491 3.0455949 1.0307294 4.172581-.1326554s1.1269861-3.0113044 0-4.1746892-2.9739724-1.2221045-4.172581-.1326554c-.9933291-.9028176-2.4654891-1.0359148-3.6046342-.325893s-1.6680028 2.0903404-1.2949262 3.3797574c.3730765 1.289417 1.557279 2.1740833 2.8995604 2.1661356zm4-4c.5522847 0 1 .4477153 1 1s-.4477153 1-1 1-1-.4477153-1-1 .4477153-1 1-1zm-4 0c.5522847 0 1 .4477153 1 1s-.4477153 1-1 1-1-.4477153-1-1 .4477153-1 1-1z"/>
      <path id="Shape" d="m27 40h1c.5522847 0 1-.4477153 1-1s-.4477153-1-1-1h-1c-.5522847 0-1 .4477153-1 1s.4477153 1 1 1z"/>
      <path id="Shape" d="m32 40h3c.5522847 0 1-.4477153 1-1s-.4477153-1-1-1h-3c-.5522847 0-1 .4477153-1 1s.4477153 1 1 1z"/>
      <path id="Shape" d="m27 44h11c.5522847 0 1-.4477153 1-1s-.4477153-1-1-1h-11c-.5522847 0-1 .4477153-1 1s.4477153 1 1 1z"/>
      <path id="Shape" d="m44.293 19.707c.3923789.3789722 1.0160848.3735524 1.4018186-.0121814s.3911536-1.0094397.0121814-1.4018186l-2.293-2.293h6.586c.5522847 0 1 .4477153 1 1v12c0 .5522847.4477153 1 1 1s1-.4477153 1-1v-12c0-1.6568542-1.3431458-3-3-3h-6.586l2.293-2.293c.3789722-.3923789.3735524-1.0160848-.0121814-1.4018186-.3857338-.38573377-1.0094397-.39115361-1.4018186-.0121814l-4 4c-.3903819.3904999-.3903819 1.0235001 0 1.414z"/>
      <path id="Shape" d="m56 30c.5522847 0 1-.4477153 1-1v-3c0-.5522847-.4477153-1-1-1s-1 .4477153-1 1v3c0 .5522847.4477153 1 1 1z"/>
      <path id="Shape" d="m56 23c.5522847 0 1-.4477153 1-1v-2c0-.5522847-.4477153-1-1-1s-1 .4477153-1 1v2c0 .5522847.4477153 1 1 1z"/>
      <path id="Shape" d="m15.293 52.707c.3904999.3903819 1.0235001.3903819 1.414 0l4-4c.3903819-.3904999.3903819-1.0235001 0-1.414l-4-4c-.3923789-.3789722-1.0160848-.3735524-1.4018186.0121814s-.3911536 1.0094397-.0121814 1.4018186l2.293 2.293h-6.586c-.5522847 0-1-.4477153-1-1v-12c0-.5522847-.44771525-1-1-1s-1 .4477153-1 1v12c0 1.6568542 1.34314575 3 3 3h6.586l-2.293 2.293c-.3903819.3904999-.3903819 1.0235001 0 1.414z"/>
      <path id="Shape" d="m6 34c0-.5522847-.44771525-1-1-1s-1 .4477153-1 1v3c0 .5522847.44771525 1 1 1s1-.4477153 1-1z"/>
      <path id="Shape" d="m5 40c-.55228475 0-1 .4477153-1 1v2c0 .5522847.44771525 1 1 1s1-.4477153 1-1v-2c0-.5522847-.44771525-1-1-1z"/>
    </g>
  </g>
</svg>